<svg width="512" height="512" viewBox="0 0 512 512" fill="none" xmlns="http://www.w3.org/2000/svg">
<g clip-path="url(#clip0_4413_7627)">
<path fill-rule="evenodd" clip-rule="evenodd" d="M2.20987 226.22C1.62987 330.7 129.32 320.83 129.32 320.83C129.32 320.83 257.01 330.7 256.43 226.22C256.43 226.22 262.57 153.94 185.73 89.34H72.8999C-3.94012 153.94 2.20987 226.22 2.20987 226.22V226.22ZM471.95 341.16L428.9 501.83L466.86 512L509.91 351.34L471.95 341.16V341.16ZM431.71 354.73C379.77 338.14 299.98 312.66 272.76 328.36V328.37L162.93 391.76V391.78C154.62 396.56 150.54 405.32 151.25 414.54C153.02 431.91 172.03 441.03 186.52 432.67V432.65L297.9 368.37C304.87 364.36 310.98 374.96 304 378.98L192.66 443.27C171.87 455.27 145.18 443.76 139.78 420.27L43.8399 394.57C31.3099 391.21 18.2899 398.71 14.9299 411.25C11.5699 423.78 19.0699 436.8 31.6099 440.16L212.25 488.55L215.09 489.39C233.71 494.44 268.32 498.47 291.97 479.62L292.56 479.21C336.42 447.23 370.39 457.89 410.37 470.45C414.66 471.8 419.03 473.17 423.5 474.51L453.73 361.67C447.28 359.7 439.82 357.32 431.71 354.73V354.73ZM77.5799 35.42H181.06V17.16C181.06 7.72 173.33 0 163.9 0H94.7399C85.2999 0 77.5799 7.72 77.5799 17.16V35.42V35.42ZM70.6399 77.06H187.99C196.07 77.06 202.67 70.46 202.67 62.38C202.67 54.31 196.07 47.7 187.99 47.7H70.6399C62.5699 47.7 55.9599 54.31 55.9599 62.38C55.9599 70.46 62.5699 77.06 70.6399 77.06ZM123.07 128.94V114.27C123.07 106.18 135.36 106.18 135.36 114.27V128.91C153.82 131.83 167.71 147.81 167.71 166.82C167.71 174.91 155.42 174.91 155.42 166.82C155.42 143.64 127.26 131.96 110.86 148.37C94.4599 164.77 106.14 192.93 129.32 192.93C163.41 192.93 180.59 234.35 156.46 258.46C150.86 264.06 143.54 267.94 135.36 269.23V283.87C135.36 291.96 123.07 291.96 123.07 283.87V269.2C104.71 266.2 90.9299 250.26 90.9299 231.32C90.9299 223.23 103.21 223.23 103.21 231.32C103.21 254.5 131.37 266.18 147.78 249.77C164.18 233.37 152.5 205.21 129.32 205.21C95.2199 205.21 78.0499 163.8 102.17 139.68C107.72 134.13 114.97 130.26 123.07 128.94V128.94Z" fill="url(#paint0_linear_4413_7627)"/>
</g>
<defs>
<linearGradient id="paint0_linear_4413_7627" x1="215.79" y1="-4.56" x2="296.22" y2="516.57" gradientUnits="userSpaceOnUse">
<stop stop-color="#1E8AC6"/>
<stop offset="0.302" stop-color="#834FBC"/>
<stop offset="1" stop-color="#138FE8"/>
</linearGradient>
<clipPath id="clip0_4413_7627">
<rect width="512" height="512" fill="white"/>
</clipPath>
</defs>
</svg>
